<?xml version="1.0" encoding="UTF-8"?>
<svg version="1.1" xmlns="http://www.w3.org/2000/svg" width="247" height="233">
<path d="M0 0 C0.65310841 -0.00367669 1.30621681 -0.00735338 1.97911638 -0.01114148 C4.16597147 -0.02214775 6.35277899 -0.02601699 8.53965759 -0.02983093 C10.10858815 -0.03609805 11.67751723 -0.04274507 13.2464447 -0.04974365 C18.39877798 -0.07076242 23.55111148 -0.08114614 28.70347595 -0.09111023 C30.4800868 -0.09515904 32.25669749 -0.099276 34.03330803 -0.10346031 C42.38353885 -0.12250965 50.73376086 -0.13673946 59.08400923 -0.14507228 C68.70685933 -0.15483466 78.3294788 -0.18112908 87.95224768 -0.22157317 C95.39957432 -0.25179399 102.84683508 -0.26654693 110.29422182 -0.26985329 C114.7374209 -0.27219758 119.18037353 -0.28107629 123.62350655 -0.30631447 C127.80884922 -0.32970395 131.99378508 -0.33378509 136.17917633 -0.32355309 C137.70811509 -0.32306019 139.23707462 -0.3293072 140.76595116 -0.34310913 C154.07644593 -0.45646221 164.63443511 1.69092619 174.4808197 11.14717102 C183.06262363 20.58047689 185.57835378 29.33877842 185.71788025 41.9030304 C185.73099243 42.76233658 185.74410461 43.62164276 185.75761414 44.50698853 C185.79924245 47.33492173 185.83385624 50.16288271 185.86753845 52.99092102 C185.89321293 54.96337523 185.91899684 56.93582801 185.94488525 58.90827942 C185.9977654 63.03719269 186.04670248 67.16613232 186.09336853 71.29512024 C186.15379925 76.58118016 186.22803853 81.86694823 186.30574322 87.15277863 C186.36338343 91.22422498 186.41165885 95.2957435 186.4573307 99.36734009 C186.48070011 101.31618555 186.50744305 103.26499363 186.53764915 105.21374512 C186.57889837 107.93959 186.60702308 110.66527516 186.63194275 113.39131165 C186.65439812 114.59313835 186.65439812 114.59313835 186.67730713 115.81924438 C186.70693316 121.07397563 186.49587627 125.98818184 182.7308197 130.02217102 C179.68573559 131.54471308 177.84148843 131.70728247 174.4808197 131.14717102 C171.23868824 128.25158305 170.22263809 125.9179762 169.95079041 121.695755 C169.9164074 119.92853133 169.90286213 118.16081894 169.90660095 116.39326477 C169.89243637 115.45539627 169.87827179 114.51752777 169.86367798 113.55123901 C169.82183817 110.56226586 169.80655168 107.57389552 169.7933197 104.58467102 C169.76422882 101.59215707 169.72964552 98.59979439 169.69082642 95.60739136 C169.66840809 93.74770954 169.6525468 91.88793442 169.64398193 90.02813721 C169.63343025 88.76145958 169.63343025 88.76145958 169.62266541 87.4691925 C169.61918594 86.72926559 169.61570648 85.98933868 169.61212158 85.22698975 C169.47708324 83.0879855 169.00631113 81.21980328 168.4808197 79.14717102 C168.43989033 76.81419669 168.43840247 74.48011877 168.4808197 72.14717102 C168.4808197 71.15717102 168.4808197 70.16717102 168.4808197 69.14717102 C168.72312317 68.24152405 168.72312317 68.24152405 168.97032166 67.31758118 C170.09748856 62.52536991 169.66560155 57.42027745 169.6683197 52.52217102 C169.6805658 51.38392883 169.69281189 50.24568665 169.70542908 49.07295227 C169.72145961 39.76455887 169.70333651 30.57962166 163.4808197 23.14717102 C157.6185903 17.41521338 151.96356295 15.90139723 143.88439941 15.88647461 C142.59897247 15.8793898 141.31354553 15.87230499 139.98916626 15.86500549 C138.58216822 15.86729885 137.17517052 15.86980848 135.76817322 15.87251282 C134.27274827 15.86816123 132.77732556 15.86297659 131.28190613 15.85702515 C127.23436664 15.84367258 123.18692074 15.84305225 119.13936353 15.84558845 C115.75474169 15.84666061 112.37013859 15.84176857 108.98552078 15.83698303 C100.99818093 15.82590098 93.01088812 15.82544322 85.02354431 15.83149719 C76.79547142 15.83753789 68.56756949 15.82522057 60.33952576 15.80392712 C53.2632986 15.78629077 46.18712577 15.78031293 39.11087745 15.78356487 C34.88976415 15.78537447 30.66877284 15.78277372 26.44767952 15.76885033 C22.47737918 15.75624326 18.50734476 15.75824312 14.53704834 15.77126122 C13.08426256 15.77362022 11.63145788 15.77091663 10.17869377 15.76263809 C0.34058019 15.71064006 -8.40271988 16.00084301 -15.85701561 23.17542458 C-22.26164555 30.77293065 -22.08731561 40.98213802 -22.00502014 50.38008118 C-22.00717121 51.77595372 -22.01105659 53.1718245 -22.01652527 54.56768799 C-22.02614038 58.32596559 -22.01101558 62.08376111 -21.99061918 65.84198046 C-21.97292364 69.79220473 -21.97657565 73.74241689 -21.9773407 77.69267273 C-21.97547352 84.32146673 -21.95818718 90.9500765 -21.93080139 97.57881165 C-21.8993309 105.22412225 -21.88880648 112.8692316 -21.8902725 120.5146023 C-21.89162706 128.68430697 -21.87772819 136.85393491 -21.85937929 145.02361631 C-21.855133 147.36534769 -21.85369919 149.70706655 -21.85290146 152.04880142 C-21.85088098 155.73761571 -21.83857779 159.42626348 -21.81856918 163.11502266 C-21.81001557 165.10153623 -21.81105577 167.08808399 -21.81245422 169.07461548 C-21.73711299 179.67099907 -21.04841413 188.18459999 -13.5191803 196.14717102 C-5.89985585 202.58126722 3.47882962 202.44312013 13.00816345 202.40596008 C14.68557114 202.41121704 14.68557114 202.41121704 16.39686584 202.4165802 C20.0707481 202.42533842 23.7444357 202.41956918 27.4183197 202.41279602 C29.98464495 202.41414437 32.55096994 202.41608631 35.11729431 202.41859436 C40.48686908 202.42153763 45.85637152 202.41746634 51.22593689 202.40791321 C57.41362019 202.39703093 63.60117163 202.40055736 69.78885174 202.41156602 C75.76733898 202.42177246 81.74576228 202.42064529 87.72425842 202.41480255 C90.25670897 202.413472 92.7891629 202.41509285 95.3216095 202.41976166 C98.86565459 202.42486215 102.40944941 202.41706698 105.95347595 202.40596008 C106.99166473 202.41000854 108.02985352 202.41405701 109.09950256 202.41822815 C118.07722262 202.36632042 125.11534258 201.58359461 132.4808197 196.14717102 C133.4708197 195.81717102 134.4608197 195.48717102 135.4808197 195.14717102 C135.75587341 194.58522034 136.03092712 194.02326965 136.3143158 193.44429016 C137.9757614 190.172515 140.53277307 187.9092983 143.1448822 185.39326477 C144.27780669 184.28074859 145.41061577 183.16811488 146.5433197 182.05537415 C148.32962314 180.31269318 150.11831632 178.57254822 151.90953064 176.83491516 C153.64017488 175.15239706 155.36163739 173.46089695 157.0823822 171.76826477 C157.62295258 171.24945236 158.16352295 170.73063995 158.72047424 170.19610596 C160.03174639 168.90256816 161.26405418 167.52997844 162.4808197 166.14717102 C162.4808197 165.15717102 162.4808197 164.16717102 162.4808197 163.14717102 C161.3876947 162.92029602 160.2945697 162.69342102 159.1683197 162.45967102 C155.4808197 161.14717102 155.4808197 161.14717102 153.4183197 158.83467102 C152.4808197 156.14717102 152.4808197 156.14717102 152.9808197 153.52217102 C154.93860825 150.42233916 156.07977508 149.63141743 159.4808197 148.14717102 C163.36210842 147.75452026 167.20900354 147.82000634 171.1058197 147.89717102 C172.15511658 147.90232727 173.20441345 147.90748352 174.2855072 147.91279602 C182.01554192 147.99207843 182.01554192 147.99207843 185.4808197 149.14717102 C187.75376433 152.40824942 187.73829666 155.37321085 187.7464447 159.26826477 C187.74902283 160.45097961 187.75160095 161.63369446 187.7542572 162.85224915 C187.74652283 164.08394836 187.73878845 165.31564758 187.7308197 166.58467102 C187.73855408 167.81250305 187.74628845 169.04033508 187.7542572 170.30537415 C187.75167908 171.48937805 187.74910095 172.67338196 187.7464447 173.89326477 C187.74418884 174.97277405 187.74193298 176.05228333 187.73960876 177.164505 C187.4728623 180.23888389 186.88179763 182.40637862 185.4808197 185.14717102 C182.43106476 187.09562557 180.93716703 187.22018659 177.3558197 186.64717102 C173.71954918 184.7499864 173.14084615 182.80119373 171.4808197 179.14717102 C170.74967957 179.87831116 170.01853943 180.60945129 169.26524353 181.36274719 C149.34336853 201.28462219 149.34336853 201.28462219 147.88970947 202.73654175 C146.5038886 204.12407364 145.12413409 205.5176559 143.74449158 206.91133118 C141.64770395 208.98233863 139.59892886 210.67723552 137.1683197 212.33467102 C136.47093689 212.82322571 135.77355408 213.3117804 135.05503845 213.81513977 C127.59281846 217.6764706 119.81739761 217.44394737 111.61412048 217.43769836 C110.34154388 217.44441559 109.06896729 217.45113281 107.75782776 217.45805359 C104.28664686 217.47562479 100.81556474 217.48040513 97.34434366 217.48168516 C95.17060619 217.48311215 92.99689339 217.48739201 90.82316208 217.4926796 C83.22547069 217.5111491 75.62784921 217.51935391 68.03013611 217.51777649 C60.97047372 217.51657529 53.91111714 217.53768119 46.8515321 217.56926382 C40.77057093 217.59548989 34.68970928 217.60614117 28.60869205 217.60486567 C24.98550501 217.60435798 21.36259021 217.60993376 17.73945999 217.63122177 C13.69486609 217.6543406 9.65095015 217.64504478 5.60630798 217.63301086 C4.42053162 217.64424988 3.23475525 217.65548889 2.01304626 217.66706848 C-9.81501156 217.57790554 -18.77737227 213.77973679 -27.2066803 205.48701477 C-35.79008724 196.06672565 -37.81119255 185.87230819 -37.85389709 173.47969055 C-37.86554901 172.32269653 -37.87720093 171.16570251 -37.88920593 169.97364807 C-37.92511228 166.15910772 -37.94703994 162.34463092 -37.96839905 158.52998352 C-37.98966297 155.87111076 -38.0115864 153.21225074 -38.03427124 150.5533905 C-38.08025425 144.98360965 -38.1186684 139.41381713 -38.15223694 133.84394836 C-38.19099535 127.42336579 -38.24027955 121.00293304 -38.29556721 114.58247292 C-38.34880575 108.38512898 -38.3958885 102.18775436 -38.43975258 95.99033737 C-38.45875707 93.36297987 -38.47910781 90.73563175 -38.50084496 88.10829544 C-38.53014153 84.43002248 -38.55237755 80.75177294 -38.57264709 77.07344055 C-38.58245102 75.99470673 -38.59225494 74.9159729 -38.60235596 73.80455017 C-38.62685775 67.8287306 -38.30303177 62.07288492 -37.5191803 56.14717102 C-38.1791803 55.81717102 -38.8391803 55.48717102 -39.5191803 55.14717102 C-39.0241803 54.65217102 -39.0241803 54.65217102 -38.5191803 54.14717102 C-38.41000635 52.56912825 -38.36333872 50.9866726 -38.34339905 49.40498352 C-38.00881998 33.70818724 -36.99371859 21.92217036 -25.67152405 10.24092102 C-18.23019107 3.25819902 -10.13959809 0.03705769 0 0 Z M169.4808197 66.14717102 C170.4808197 68.14717102 170.4808197 68.14717102 170.4808197 68.14717102 Z M164.4808197 162.14717102 C164.8108197 162.80717102 165.1408197 163.46717102 165.4808197 164.14717102 C165.8108197 163.48717102 166.1408197 162.82717102 166.4808197 162.14717102 C165.8208197 162.14717102 165.1608197 162.14717102 164.4808197 162.14717102 Z " fill="#0D3B60" transform="translate(47.51918029785156,4.8528289794921875)"/>
<path d="M0 0 C1.11503906 0.64324219 2.23007813 1.28648438 3.37890625 1.94921875 C11.03113454 6.24513723 18.88985759 10.025752 26.82006836 13.77856445 C42.51039262 21.20570512 42.51039262 21.20570512 43.94140625 22.63671875 C44.04337681 24.04427313 44.0765855 25.45688491 44.08184814 26.86811829 C44.08755829 27.7808551 44.09326843 28.69359192 44.09915161 29.63398743 C44.1008284 31.14801399 44.1008284 31.14801399 44.10253906 32.69262695 C44.10998642 34.27791702 44.10998642 34.27791702 44.11758423 35.89523315 C44.13225022 39.40932861 44.13901548 42.92337891 44.14453125 46.4375 C44.15027937 48.87029523 44.15603714 51.30309044 44.1618042 53.73588562 C44.17232705 58.84467786 44.1781612 63.9534543 44.18164062 69.06225586 C44.1871258 75.6164281 44.21114913 82.17039263 44.23961258 88.7244997 C44.25821483 93.75244256 44.26344329 98.78033518 44.2649765 103.80830956 C44.26800938 106.22488731 44.27605916 108.64146405 44.28916168 111.05800819 C44.30617031 114.4363761 44.30435432 117.81423389 44.29785156 121.19262695 C44.30706635 122.1959053 44.31628113 123.19918365 44.32577515 124.23286438 C44.32020599 125.15406067 44.31463684 126.07525696 44.30889893 127.02436829 C44.31109877 128.22259452 44.31109877 128.22259452 44.31334305 129.44502735 C43.84162161 132.22471417 42.85561903 133.59124678 40.94140625 135.63671875 C37.28262263 136.82980037 35.64142933 136.96339619 32.12890625 135.32421875 C29.94140625 133.63671875 29.94140625 133.63671875 28.94140625 131.63671875 C28.82365033 128.63771449 28.76615042 125.66062991 28.75195312 122.66064453 C28.73951317 121.26533005 28.73951317 121.26533005 28.7268219 119.84182739 C28.7093975 117.81747277 28.69423726 115.79309772 28.68104553 113.76871109 C28.66005462 110.56652762 28.63302778 107.36444642 28.60437012 104.162323 C28.54460532 97.36216072 28.49249713 90.56195099 28.44140625 83.76171875 C28.38220131 75.89037317 28.31988883 68.01907775 28.24952698 60.14782333 C28.22293675 56.99033967 28.20212947 53.83285104 28.18151855 50.67532349 C28.16491435 48.74074056 28.14804241 46.8061599 28.13085938 44.87158203 C28.12667496 43.99143433 28.12249054 43.11128662 28.11817932 42.20446777 C28.10983566 41.39410065 28.101492 40.58373352 28.09289551 39.74880981 C28.08516491 38.69633151 28.08516491 38.69633151 28.07727814 37.62259102 C27.92464292 35.39170971 27.80529661 33.71438792 26.94140625 31.63671875 C24.77375208 30.06892532 24.77375208 30.06892532 22.03125 28.83984375 C21.04189453 28.35644531 20.05253906 27.87304688 19.03320312 27.375 C17.99228516 26.88386719 16.95136719 26.39273438 15.87890625 25.88671875 C14.83412109 25.38011719 13.78933594 24.87351562 12.71289062 24.3515625 C10.12820863 23.10052921 7.53790356 21.86299188 4.94140625 20.63671875 C4.94324984 21.2945529 4.94509342 21.95238705 4.94699287 22.63015556 C4.99111873 38.62025457 5.02423686 54.61033247 5.04503059 70.60047722 C5.05535298 78.3331203 5.06943163 86.0657228 5.09228516 93.79833984 C5.11218965 100.53633466 5.12511568 107.2743001 5.12958324 114.0123235 C5.13219563 117.58164616 5.13835569 121.15088474 5.15286636 124.72018051 C5.16891557 128.70002597 5.16938783 132.67978838 5.16845703 136.65966797 C5.17564758 137.84937195 5.18283813 139.03907593 5.19024658 140.26483154 C5.18749725 141.34459259 5.18474792 142.42435364 5.18191528 143.53683472 C5.18375887 144.47890715 5.18560246 145.42097958 5.18750191 146.39159966 C4.94140625 148.63671875 4.94140625 148.63671875 2.94140625 150.63671875 C-0.09765625 150.83203125 -0.09765625 150.83203125 -3.68359375 150.76171875 C-4.87210937 150.74367187 -6.060625 150.725625 -7.28515625 150.70703125 C-8.20039063 150.68382812 -9.115625 150.660625 -10.05859375 150.63671875 C-10.78933113 117.23749755 -11.15512585 83.85597453 -11.12109375 50.44921875 C-11.12023773 49.60288754 -11.11938171 48.75655632 -11.11849976 47.8845787 C-11.10717573 37.46860268 -11.08719882 27.05266216 -11.05859375 16.63671875 C-12.02724365 17.12358154 -12.99589355 17.61044434 -13.99389648 18.11206055 C-23.00666918 22.63467186 -32.04714297 27.09515871 -41.12573242 31.48413086 C-43.15311967 32.46470859 -45.17911913 33.44811596 -47.20507812 34.43164062 C-48.52205358 35.06917949 -49.83910789 35.70655551 -51.15625 36.34375 C-52.89660522 37.18643433 -52.89660522 37.18643433 -54.67211914 38.04614258 C-58.10577139 39.65887738 -61.56367878 41.16273162 -65.05859375 42.63671875 C-65.05637314 43.35777802 -65.05415253 44.07883728 -65.05186462 44.82174683 C-65.02478437 54.05172873 -65.00675206 63.28170468 -64.99609375 72.51171875 C-64.99523773 73.24778728 -64.99438171 73.98385582 -64.99349976 74.74222946 C-64.96783986 99.71978123 -65.24703738 124.67056853 -66.05859375 149.63671875 C-68.51639351 149.85798053 -70.97387023 150.0642227 -73.43359375 150.26171875 C-74.48160156 150.35839844 -74.48160156 150.35839844 -75.55078125 150.45703125 C-77.38228486 150.59791614 -79.22172123 150.62433534 -81.05859375 150.63671875 C-81.71859375 149.97671875 -82.37859375 149.31671875 -83.05859375 148.63671875 C-82.39859375 148.63671875 -81.73859375 148.63671875 -81.05859375 148.63671875 C-81.22092499 147.3509494 -81.38325623 146.06518005 -81.55050659 144.740448 C-82.09610589 139.80459932 -82.19983214 134.93892241 -82.18798828 129.97705078 C-82.1897406 129.05706299 -82.19149292 128.1370752 -82.19329834 127.18920898 C-82.1976681 124.17429672 -82.19479563 121.15944403 -82.19140625 118.14453125 C-82.1920808 116.03140247 -82.1930521 113.91827378 -82.19430542 111.80514526 C-82.19577589 107.38555154 -82.1936492 102.96597808 -82.18896484 98.54638672 C-82.18327499 92.90570519 -82.18654601 87.26507133 -82.19253731 81.62439156 C-82.19616648 77.26272224 -82.19499342 72.90106405 -82.19240952 68.53939438 C-82.19174639 66.46075306 -82.19254698 64.38211071 -82.19488907 62.30347061 C-82.21986471 33.90437339 -82.21986471 33.90437339 -79.09448242 30.49267578 C-77.79861206 29.94909424 -77.79861206 29.94909424 -76.4765625 29.39453125 C-75.49574707 28.95536377 -74.51493164 28.51619629 -73.50439453 28.0637207 C-71.89153564 27.41922974 -71.89153564 27.41922974 -70.24609375 26.76171875 C-67.9556591 25.75797238 -65.66529722 24.75405992 -63.375 23.75 C-62.17504395 23.24291504 -60.97508789 22.73583008 -59.73876953 22.21337891 C-54.85129479 20.13948741 -50.05392284 17.87609724 -45.24780273 15.62133789 C-41.72297835 13.96769571 -38.18866475 12.33591671 -34.65234375 10.70703125 C-30.50427632 8.78782991 -26.37956152 6.83170667 -22.27734375 4.81640625 C-21.40770996 4.39190186 -20.53807617 3.96739746 -19.64208984 3.5300293 C-18.06195541 2.75502592 -16.48630744 1.97076983 -14.91650391 1.17504883 C-9.53274705 -1.45674582 -5.74380466 -2.56013771 0 0 Z " fill="#0D3B60" transform="translate(144.05859375,42.36328125)"/>
<path d="M0 0 C4.50046981 1.69978605 8.7641271 3.79028347 13.0625 5.9375 C13.76955078 6.28490234 14.47660156 6.63230469 15.20507812 6.99023438 C15.89150391 7.33248047 16.57792969 7.67472656 17.28515625 8.02734375 C17.90269775 8.33406006 18.52023926 8.64077637 19.15649414 8.95678711 C19.76485107 9.30104736 20.37320801 9.64530762 21 10 C21.68741776 10.32081543 22.37483551 10.64163086 23.08308411 10.97216797 C26.23087986 14.30210074 25.55330601 18.07625934 25.51416016 22.48852539 C25.52484779 23.94739922 25.52484779 23.94739922 25.53575134 25.43574524 C25.55508045 28.65658697 25.54674444 31.87677551 25.5390625 35.09765625 C25.54896221 37.33061184 25.56090067 39.56355925 25.57479858 41.79649353 C25.60722212 47.67957015 25.61755872 53.56246049 25.62164307 59.44561768 C25.63038713 68.86679205 25.66574882 78.28781298 25.7138176 87.7088604 C25.72645547 91.00722259 25.72564017 94.30539339 25.72354126 97.60377502 C25.73011866 99.61614126 25.73712433 101.62850615 25.74462891 103.64086914 C25.73844292 105.02562439 25.73844292 105.02562439 25.73213196 106.43835449 C25.7375148 107.27818375 25.74289764 108.118013 25.7484436 108.98329163 C25.74877909 109.71498597 25.74911457 110.44668032 25.74946022 111.20054722 C25.85089393 113.25278756 25.85089393 113.25278756 28 115 C31.82564665 114.81242938 31.82564665 114.81242938 35 113 C35.1075945 111.58366281 35.14680322 110.1620562 35.15821838 108.74168396 C35.1680072 107.8231665 35.17779602 106.90464905 35.18788147 105.95829773 C35.19363693 104.94266251 35.1993924 103.92702728 35.20532227 102.88061523 C35.21522186 101.81733002 35.22512146 100.7540448 35.23532104 99.65853882 C35.26704335 96.12524686 35.29173573 92.59194142 35.31640625 89.05859375 C35.33696652 86.61621236 35.35796273 84.1738346 35.37937927 81.73146057 C35.4346957 75.28869561 35.48406263 68.84589804 35.53222656 62.40307617 C35.58237189 55.83444297 35.63809424 49.2658574 35.69335938 42.69726562 C35.80105794 29.79821801 35.90266597 16.89912977 36 4 C36.66 4 37.32 4 38 4 C38.0700808 18.14271531 38.12278414 32.28540369 38.15543652 46.42825699 C38.17110635 52.99503849 38.19236894 59.56170351 38.22631836 66.12841797 C38.2588644 72.46317442 38.27684308 78.79781869 38.28463173 85.13265228 C38.29018376 87.55202755 38.30102522 89.97139654 38.31719017 92.39072418 C38.33890081 95.77396515 38.34196954 99.15673988 38.34057617 102.54003906 C38.351362 103.54488846 38.36214783 104.54973785 38.3732605 105.58503723 C38.36707451 106.9689994 38.36707451 106.9689994 38.36076355 108.38092041 C38.36352893 109.18103672 38.36629431 109.98115303 38.36914349 110.80551529 C37.90097527 113.58868233 36.9165628 114.95302304 35 117 C31.34121638 118.19308162 29.70002308 118.32667744 26.1875 116.6875 C24 115 24 115 23 113 C22.88224408 110.00099574 22.82474417 107.02391116 22.81054688 104.02392578 C22.80225357 103.09371613 22.79396027 102.16350647 22.78541565 101.20510864 C22.76799125 99.18075402 22.75283101 97.15637897 22.73963928 95.13199234 C22.71864837 91.92980887 22.69162153 88.72772767 22.66296387 85.52560425 C22.60319907 78.72544197 22.55109088 71.92523224 22.5 65.125 C22.44079506 57.25365442 22.37848258 49.382359 22.30812073 41.51110458 C22.2815305 38.35362092 22.26072322 35.19613229 22.2401123 32.03860474 C22.2235081 30.10402181 22.20663616 28.16944115 22.18945312 26.23486328 C22.18526871 25.35471558 22.18108429 24.47456787 22.17677307 23.56774902 C22.16842941 22.7573819 22.16008575 21.94701477 22.15148926 21.11209106 C22.14633553 20.41043886 22.14118179 19.70878666 22.13587189 18.98587227 C21.99035732 16.85906475 21.67731208 15.02266212 21 13 C19.04270792 11.57891222 19.04270792 11.57891222 16.5625 10.52734375 C15.22058594 9.89022461 15.22058594 9.89022461 13.8515625 9.24023438 C12.91054687 8.81033203 11.96953125 8.38042969 11 7.9375 C9.14155593 7.08083366 7.2871397 6.21535764 5.4375 5.33984375 C4.61121094 4.96206787 3.78492188 4.58429199 2.93359375 4.19506836 C1 3 1 3 0 0 Z " fill="#0A2139" transform="translate(150,61)"/>
<path d="M0 0 C0.99130444 -0.00128164 0.99130444 -0.00128164 2.00263524 -0.00258917 C4.21518373 -0.00423516 6.42765626 0.00126297 8.64019775 0.00672913 C10.22697447 0.00701121 11.81375131 0.00685284 13.40052795 0.00628662 C17.70801637 0.00599949 22.01547699 0.01188266 26.32295895 0.01886058 C30.82463884 0.02510808 35.32631937 0.02569902 39.82800293 0.02688599 C48.3524992 0.02999517 56.87698266 0.03820302 65.40147328 0.04823548 C75.10633732 0.0594094 84.81120197 0.06491029 94.51607084 0.06993091 C114.47965415 0.08038596 134.44322593 0.09797744 154.40679932 0.12025452 C154.73679932 0.78025452 155.06679932 1.44025452 155.40679932 2.12025452 C154.16965195 2.12245436 154.16965195 2.12245436 152.90751171 2.12469864 C132.80830694 2.161804 112.70927029 2.22086816 92.61020184 2.30415726 C82.89029869 2.34391027 73.17047608 2.37632173 63.45050049 2.39125061 C54.97527835 2.40428652 46.50023367 2.4313006 38.0251115 2.47486758 C33.54054525 2.49743885 29.05619753 2.51316781 24.57156944 2.51213837 C20.34351647 2.51138918 16.11594576 2.52944291 11.88801765 2.56142235 C10.34299293 2.56988487 8.79791389 2.57169627 7.25287628 2.56605721 C-5.87999536 2.52453934 -15.75088116 4.35392444 -25.42913818 13.67884827 C-29.71554841 18.51459988 -32.44018667 24.05266956 -34.59320068 30.12025452 C-34.92320068 30.12025452 -35.25320068 30.12025452 -35.59320068 30.12025452 C-35.25569729 20.83891113 -30.91730111 15.07242637 -24.28070068 8.80775452 C-17.00296739 2.63643338 -9.45439452 -0.00736324 0 0 Z " fill="#09253F" transform="translate(47.59320068359375,4.8797454833984375)"/>
<path d="M0 0 C0.66 0 1.32 0 2 0 C2.00146656 0.78261326 2.00293312 1.56522652 2.00444412 2.37155533 C2.04156685 21.45300359 2.10065384 40.5342696 2.18390274 59.61557388 C2.22363764 68.84332809 2.25605824 78.0709977 2.27099609 87.29882812 C2.28404146 95.34593696 2.31107941 103.39285923 2.35461307 111.43986297 C2.37716326 115.69698589 2.39291457 119.95387926 2.39188385 124.2110672 C2.3911334 128.22655242 2.40923687 132.24153143 2.44116783 136.25688553 C2.44961469 137.72247378 2.45145261 139.18811916 2.44580269 140.65372086 C2.40185354 153.81821114 4.22486821 164.26265228 13.6328125 173.87109375 C18.95132539 178.65424478 24.04478335 181.40609618 31 183 C30.67 183.66 30.34 184.32 30 185 C21.77027859 184.56685677 15.05212925 179.47738937 9.625 173.625 C1.63098654 164.01929028 -0.29253954 154.57211961 -0.3347168 142.33251953 C-0.34636871 141.17552551 -0.35802063 140.01853149 -0.37002563 138.82647705 C-0.40593199 135.0119367 -0.42785965 131.1974599 -0.44921875 127.3828125 C-0.47048267 124.72393974 -0.49240611 122.06507972 -0.51509094 119.40621948 C-0.56107395 113.83643863 -0.59948811 108.26664611 -0.63305664 102.69677734 C-0.67181505 96.27619477 -0.72109925 89.85576202 -0.77638692 83.4353019 C-0.82962545 77.23795796 -0.87670821 71.04058334 -0.92057228 64.84316635 C-0.93957677 62.21580885 -0.95992751 59.58846073 -0.98166466 56.96112442 C-1.01096123 53.28285146 -1.03319725 49.60460192 -1.0534668 45.92626953 C-1.06327072 44.84753571 -1.07307465 43.76880188 -1.08317566 42.65737915 C-1.10767745 36.68155958 -0.78385148 30.9257139 0 25 C-0.66 24.67 -1.32 24.34 -2 24 C-1.67 23.67 -1.34 23.34 -1 23 C-0.84259395 21.29436222 -0.74906608 19.58272756 -0.68359375 17.87109375 C-0.64169922 16.83662109 -0.59980469 15.80214844 -0.55664062 14.73632812 C-0.51732422 13.64771484 -0.47800781 12.55910156 -0.4375 11.4375 C-0.37272461 9.7987793 -0.37272461 9.7987793 -0.30664062 8.12695312 C-0.20017932 5.41810436 -0.09816484 2.70916008 0 0 Z " fill="#09243B" transform="translate(10,36)"/>
<path d="M0 0 C0.33 0 0.66 0 1 0 C1.33 34.98 1.66 69.96 2 106 C-2.95 106.33 -7.9 106.66 -13 107 C-13.66 106.34 -14.32 105.68 -15 105 C-14.34 105 -13.68 105 -13 105 C-13.07050221 104.44769368 -13.14100443 103.89538736 -13.21364307 103.32634449 C-13.84776245 98.06241018 -14.14860473 92.90522923 -14.14526367 87.60620117 C-14.14862228 86.82127289 -14.1519809 86.0363446 -14.15544128 85.22763062 C-14.16484298 82.66606004 -14.16688811 80.10455543 -14.16796875 77.54296875 C-14.17118606 75.74937412 -14.17455049 73.95577976 -14.17805481 72.16218567 C-14.18401701 68.41939688 -14.18589743 64.67663109 -14.18530273 60.93383789 C-14.18520064 56.13765873 -14.19891477 51.34162601 -14.21607494 46.54548168 C-14.22718185 42.8489158 -14.22922244 39.15238568 -14.22869301 35.45580482 C-14.22987271 33.68676557 -14.23429395 31.91772538 -14.24202538 30.14870262 C-14.25180986 27.68130451 -14.24895469 25.21422935 -14.24291992 22.74682617 C-14.24853943 22.01793686 -14.25415894 21.28904755 -14.25994873 20.53807068 C-14.23706599 16.86089931 -14.03036423 14.12512067 -12 11 C-10.70541428 14.88375716 -10.86896219 18.55560117 -10.88647461 22.60229492 C-10.88632858 23.48055435 -10.88618256 24.35881378 -10.8860321 25.26368713 C-10.88672928 28.16930605 -10.89451261 31.07486102 -10.90234375 33.98046875 C-10.90420862 35.99400294 -10.9056322 38.00753758 -10.90663147 40.02107239 C-10.91045121 45.32291922 -10.92027688 50.62473869 -10.93133545 55.92657471 C-10.94156123 61.33581167 -10.9461316 66.74505304 -10.95117188 72.15429688 C-10.96189961 82.76954327 -10.97896954 93.38476936 -11 104 C-7.37 104 -3.74 104 0 104 C0 69.68 0 35.36 0 0 Z " fill="#03192E" transform="translate(76,86)"/>
<path d="M0 0 C0 3 0 3 -1.66479492 5.00537109 C-2.42896729 5.75383301 -3.19313965 6.50229492 -3.98046875 7.2734375 C-4.81513672 8.0984375 -5.64980469 8.9234375 -6.50976562 9.7734375 C-7.39341797 10.63195312 -8.27707031 11.49046875 -9.1875 12.375 C-10.05181641 13.22578125 -10.91613281 14.0765625 -11.80664062 14.953125 C-13.47512832 16.59476347 -15.14711987 18.23285021 -16.82299805 19.86694336 C-18.51758111 21.5273193 -20.18761853 23.20406666 -21.84375 24.90234375 C-23.9030642 26.90569832 -25.94131688 28.5705872 -28.3125 30.1875 C-29.35857422 30.92033203 -29.35857422 30.92033203 -30.42578125 31.66796875 C-37.87194749 35.52099255 -45.5668778 35.27702276 -53.75 35.22705078 C-55.00937881 35.22734283 -56.26875763 35.22763489 -57.56629944 35.22793579 C-60.99759254 35.22850649 -64.42874405 35.21679835 -67.86000443 35.20278788 C-71.45410686 35.19023305 -75.04821301 35.18910629 -78.64233398 35.18673706 C-85.43842278 35.1805362 -92.23444676 35.16414436 -99.03050709 35.14403808 C-106.77176955 35.12163556 -114.51303521 35.11067473 -122.25432205 35.10064721 C-138.16958549 35.07977681 -154.08478437 35.04462811 -170 35 C-170.33 34.34 -170.66 33.68 -171 33 C-170.0011185 32.99780016 -170.0011185 32.99780016 -168.98205757 32.99555588 C-152.74699476 32.95843579 -136.51217354 32.8993525 -120.27728462 32.81609726 C-112.42606406 32.77635949 -104.57494297 32.74394039 -96.72363281 32.72900391 C-89.8770416 32.71595998 -83.03066973 32.68892585 -76.18420208 32.64538693 C-72.56205904 32.62283328 -68.94018593 32.60708562 -65.31796646 32.60811615 C-61.26521809 32.60900617 -57.21326082 32.57864966 -53.16064453 32.54589844 C-51.37715355 32.55344398 -51.37715355 32.55344398 -49.55763245 32.56114197 C-36.49636162 32.39831145 -27.2676607 27.65319985 -18.1640625 18.359375 C-17.37773941 17.56880707 -17.37773941 17.56880707 -16.57553101 16.76226807 C-14.92055166 15.09619309 -13.27270711 13.42326417 -11.625 11.75 C-10.49656019 10.61151665 -9.36765819 9.47349122 -8.23828125 8.3359375 C-5.48681792 5.56255488 -2.74172617 2.78300766 0 0 Z " fill="#03162B" transform="translate(213,187)"/>
<path d="M0 0 C0.99 0.33 1.98 0.66 3 1 C0.10736733 3.94230144 -2.79196934 6.87781592 -5.69750977 9.80737305 C-6.68372218 10.80360433 -7.66812729 11.80162829 -8.65063477 12.80151367 C-10.06828851 14.24359733 -11.49245115 15.67897564 -12.91796875 17.11328125 C-13.77156982 17.97735596 -14.6251709 18.84143066 -15.50463867 19.73168945 C-23.42977501 26.93572445 -31.52938715 27.29672061 -41.76269531 27.25878906 C-43.51264297 27.26404602 -43.51264297 27.26404602 -45.29794312 27.26940918 C-49.14139817 27.27818859 -52.98466819 27.27239213 -56.828125 27.265625 C-59.50136544 27.26697237 -62.17460031 27.26891044 -64.84783936 27.27142334 C-70.44285073 27.27505443 -76.03780917 27.27028433 -81.6328125 27.26074219 C-88.10118179 27.24983796 -94.56942519 27.25340086 -101.03779149 27.264395 C-106.59802937 27.27346697 -112.15822935 27.27475424 -117.71847224 27.26951766 C-121.03675807 27.26640019 -124.35497168 27.26676867 -127.67325592 27.27259064 C-131.36721919 27.27765121 -135.06093784 27.26995299 -138.75488281 27.25878906 C-139.85518829 27.26283752 -140.95549377 27.26688599 -142.08914185 27.27105713 C-143.59470139 27.26259766 -143.59470139 27.26259766 -145.13067627 27.25396729 C-146.4402725 27.25283621 -146.4402725 27.25283621 -147.77632523 27.25168228 C-150 27 -150 27 -153 25 C-149.98337869 24.12382108 -147.31239521 23.88006251 -144.17573547 23.89320374 C-142.72293434 23.89547722 -142.72293434 23.89547722 -141.24078369 23.89779663 C-140.18461853 23.904534 -139.12845337 23.91127136 -138.0402832 23.91821289 C-136.92274155 23.92127945 -135.80519989 23.92434601 -134.65379333 23.92750549 C-132.22566832 23.93466142 -129.79754911 23.94405187 -127.36944008 23.95540047 C-123.52307883 23.97278143 -119.6767591 23.98308767 -115.83036804 23.99131775 C-104.89346362 24.01577554 -93.9566153 24.05122294 -83.01977539 24.09594727 C-76.3302715 24.12321703 -69.64080699 24.13979177 -62.95125389 24.15081596 C-60.4048359 24.15701306 -57.85842415 24.16700242 -55.31203651 24.18089485 C-51.74354596 24.20018385 -48.17522525 24.20701765 -44.60668945 24.21118164 C-43.03762344 24.22432404 -43.03762344 24.22432404 -41.43685913 24.23773193 C-32.42773703 24.22577486 -25.39135548 23.45552428 -18 18 C-17.01 17.67 -16.02 17.34 -15 17 C-14.29553722 15.68624416 -13.63244031 14.34990425 -13 13 C-11.57958984 11.35253906 -11.57958984 11.35253906 -9.9609375 9.765625 C-9.38085938 9.19199219 -8.80078125 8.61835938 -8.203125 8.02734375 C-7.59984375 7.44082031 -6.9965625 6.85429687 -6.375 6.25 C-5.76398438 5.64800781 -5.15296875 5.04601562 -4.5234375 4.42578125 C-3.02011376 2.94594695 -1.51065144 1.47235324 0 0 Z " fill="#021730" transform="translate(198,183)"/>
<path d="M0 0 C0.33 0 0.66 0 1 0 C1.13109096 16.82121274 1.26151131 33.64243054 1.39115143 50.46365452 C1.45137213 58.27549545 1.51180542 66.08733463 1.57275391 73.89916992 C1.62592752 80.71456177 1.67868725 87.52995668 1.73096704 94.34535545 C1.7586166 97.94803377 1.78646179 101.55071032 1.81480408 105.15338326 C1.84657464 109.19282693 1.87742039 113.23227719 1.90820312 117.27172852 C1.91755386 118.44274612 1.9269046 119.61376373 1.9365387 120.82026672 C1.95333079 123.06118272 1.96791351 125.30211653 1.9801178 127.54306221 C1.99443723 130.03279579 2.01533081 132.52206057 2.04075623 135.01167107 C2.05015429 136.35628473 2.05931977 137.70090003 2.0682373 139.04551697 C2.07901054 140.25582046 2.08978378 141.46612394 2.10088348 142.71310329 C2.01172643 145.61793991 1.67634516 148.18219313 1 151 C-1.32263412 147.51604881 -1.24931277 146.17804269 -1.24723816 142.0652771 C-1.25143265 140.82571762 -1.25562714 139.58615814 -1.25994873 138.30903625 C-1.25446524 136.93307417 -1.24878226 135.55711287 -1.24291992 134.18115234 C-1.24399269 132.73407404 -1.24593129 131.28699615 -1.24867249 129.83992004 C-1.25352399 125.90829541 -1.245862 121.9767841 -1.23571944 118.04517317 C-1.2269467 113.9363362 -1.22869622 109.82750287 -1.2290802 105.71865845 C-1.22814339 98.82023213 -1.21945601 91.92184977 -1.20581055 85.0234375 C-1.19007241 77.03734811 -1.18481286 69.05130685 -1.1855461 61.06520307 C-1.18615548 53.39306745 -1.18105908 45.72094758 -1.17275429 38.04881668 C-1.16921543 34.77848818 -1.16739019 31.50816525 -1.16686058 28.23783493 C-1.16585934 24.39161848 -1.15978078 20.54544276 -1.14969444 16.69923973 C-1.14676279 15.28383445 -1.14554541 13.86842448 -1.14612198 12.45301628 C-1.14660935 10.52892501 -1.14036326 8.60483546 -1.13371277 6.68075562 C-1.13203692 5.60154531 -1.13036108 4.52233501 -1.12863445 3.41042137 C-1 1 -1 1 0 0 Z " fill="#021933" transform="translate(24,37)"/>
<path d="M0 0 C3.88477205 3.88477205 2.71842823 10.56736166 2.79418945 15.80493164 C2.6161732 23.18258124 2.6161732 23.18258124 -0.12890625 26.82421875 C-2.80554047 28.43331618 -4.92646106 29.45305528 -8 30 C-8.99 29.67 -9.98 29.34 -11 29 C-10.67 21.08 -10.34 13.16 -10 5 C-6.7 3.35 -3.4 1.7 0 0 Z " fill="#0D3558" transform="translate(101,96)"/>
<path d="M0 0 C-0.33 7.59 -0.66 15.18 -1 23 C-10 27 -10 27 -12 27 C-12.33 27.99 -12.66 28.98 -13 30 C-13.86587503 24.72095544 -14.21267497 19.59681055 -14.25 14.25 C-14.270625 13.49589844 -14.29125 12.74179688 -14.3125 11.96484375 C-14.3510781 6.53497615 -14.3510781 6.53497615 -12.76953125 4.125 C-10.70905783 2.81503014 -8.67269896 1.73687532 -6.4375 0.75 C-5.65246094 0.39421875 -4.86742188 0.0384375 -4.05859375 -0.328125 C-2 -1 -2 -1 0 0 Z " fill="#0F3A5B" transform="translate(104,135)"/>
<path d="M0 0 C0 7.92 0 15.84 0 24 C-9 29 -9 29 -12 29 C-12.14496508 25.22956968 -12.23395607 21.45985258 -12.3125 17.6875 C-12.3753418 16.0797168 -12.3753418 16.0797168 -12.43945312 14.43945312 C-12.45556641 13.41142578 -12.47167969 12.38339844 -12.48828125 11.32421875 C-12.51446533 10.37635498 -12.54064941 9.42849121 -12.56762695 8.4519043 C-12 6 -12 6 -9.63745117 4.27270508 C-8.76709229 3.8527124 -7.8967334 3.43271973 -7 3 C-6.113125 2.443125 -5.22625 1.88625 -4.3125 1.3125 C-2 0 -2 0 0 0 Z " fill="#0D3C62" transform="translate(123,88)"/>
<path d="M0 0 C0.23292281 3.72810868 0.37459124 7.45434992 0.5 11.1875 C0.56703125 12.24259766 0.6340625 13.29769531 0.703125 14.38476562 C0.89604029 22.02903397 0.89604029 22.02903397 -1.7109375 24.85400391 C-4.94155607 26.95079962 -7.11275167 28 -11 28 C-12.93659942 7.87319885 -12.93659942 7.87319885 -11 4 C-9.2578125 2.9296875 -9.2578125 2.9296875 -7.125 1.875 C-6.42632812 1.52179688 -5.72765625 1.16859375 -5.0078125 0.8046875 C-3 0 -3 0 0 0 Z " fill="#0C3657" transform="translate(123,126)"/>
<path d="M0 0 C0.66 0 1.32 0 2 0 C2.00142502 1.08106018 2.00285004 2.16212036 2.00431824 3.27593994 C2.02097978 13.4584725 2.06372749 23.64060498 2.13209057 33.82292557 C2.16639758 39.0579528 2.19147633 44.29268705 2.19555664 49.52783203 C2.19983162 54.57906268 2.22822779 59.62963201 2.27343178 64.68065643 C2.28643243 66.60874328 2.2907054 68.53690918 2.28615379 70.46503448 C2.28126597 73.16394161 2.3072579 75.86090229 2.34057617 78.55957031 C2.33195053 79.35870346 2.32332489 80.15783661 2.31443787 80.98118591 C2.39800629 85.01286667 2.62696987 86.62897903 5.54121399 89.52752686 C6.35261337 90.01344299 7.16401276 90.49935913 8 91 C6.02 91.495 6.02 91.495 4 92 C0.00631493 88.15623325 -0.47730353 85.25859181 -0.58000183 79.98008728 C-0.57809341 79.07786942 -0.576185 78.17565155 -0.57421875 77.24609375 C-0.59546562 75.839291 -0.59546562 75.839291 -0.61714172 74.40406799 C-0.65898153 71.41509484 -0.67426802 68.4267245 -0.6875 65.4375 C-0.71659088 62.44498605 -0.75117419 59.45262337 -0.78999329 56.46022034 C-0.81241161 54.60053852 -0.82827291 52.7407634 -0.83683777 50.88096619 C-0.84387222 50.03651443 -0.85090668 49.19206268 -0.8581543 48.32202148 C-0.86163376 47.58209457 -0.86511322 46.84216766 -0.86869812 46.07981873 C-1.00373647 43.94081448 -1.47450857 42.07263226 -2 40 C-2.04092937 37.66702567 -2.04241723 35.33294775 -2 33 C-2 32.01 -2 31.02 -2 30 C-1.84152588 29.40348633 -1.68305176 28.80697266 -1.51977539 28.19238281 C-0.86139094 25.41535494 -0.78146283 22.77405972 -0.68359375 19.921875 C-0.64169922 18.76171875 -0.59980469 17.6015625 -0.55664062 16.40625 C-0.51732422 15.1996875 -0.47800781 13.993125 -0.4375 12.75 C-0.39431641 11.52796875 -0.35113281 10.3059375 -0.30664062 9.046875 C-0.20062645 6.0313608 -0.09856064 3.01576552 0 0 Z M-1 27 C0 29 0 29 0 29 Z " fill="#06203A" transform="translate(218,44)"/>
<path d="M0 0 C1.04929688 0.00515625 2.09859375 0.0103125 3.1796875 0.015625 C10.90972222 0.09490741 10.90972222 0.09490741 14.375 1.25 C16.64794463 4.5110784 16.63247696 7.47603983 16.640625 11.37109375 C16.64449219 13.14516602 16.64449219 13.14516602 16.6484375 14.95507812 C16.64070313 16.18677734 16.63296875 17.41847656 16.625 18.6875 C16.63660156 20.52924805 16.63660156 20.52924805 16.6484375 22.40820312 C16.64585937 23.59220703 16.64328125 24.77621094 16.640625 25.99609375 C16.63836914 27.07560303 16.63611328 28.1551123 16.63378906 29.26733398 C16.36704259 32.34171287 15.77597793 34.5092076 14.375 37.25 C12.125 38.6875 12.125 38.6875 9.375 39.25 C6.125 38.5 6.125 38.5 3.375 37.25 C2.02060332 34.54120665 2.30998549 32.24066732 2.375 29.25 C3.58128008 31.58214148 4.5404738 33.74642139 5.375 36.25 C8.84 35.755 8.84 35.755 12.375 35.25 C12.705 24.69 13.035 14.13 13.375 3.25 C4.465 3.25 -4.445 3.25 -13.625 3.25 C-13.295 4.24 -12.965 5.23 -12.625 6.25 C-13.5625 8.4375 -13.5625 8.4375 -14.625 10.25 C-12.19112247 11.46693876 -10.20661154 11.56959896 -7.5 11.8125 C-6.58992187 11.89628906 -5.67984375 11.98007813 -4.7421875 12.06640625 C-3.69417969 12.15728516 -3.69417969 12.15728516 -2.625 12.25 C-2.625 13.9 -2.625 15.55 -2.625 17.25 C-3.285 16.92 -3.945 16.59 -4.625 16.25 C-4.295 15.26 -3.965 14.27 -3.625 13.25 C-4.45644531 13.30800781 -5.28789062 13.36601562 -6.14453125 13.42578125 C-7.23121094 13.47089844 -8.31789062 13.51601562 -9.4375 13.5625 C-11.05591797 13.64951172 -11.05591797 13.64951172 -12.70703125 13.73828125 C-15.625 13.25 -15.625 13.25 -17.54296875 10.89453125 C-18.625 8.25 -18.625 8.25 -18.125 5.625 C-13.85650887 -1.13344428 -7.15510911 -0.14168533 0 0 Z " fill="#09243D" transform="translate(218.625,152.75)"/>
<path d="M0 0 C2.98574271 2.98574271 2.32453464 6.29453334 2.35058594 10.30175781 C2.36384415 11.16047989 2.37710236 12.01920197 2.39076233 12.90394592 C2.43197108 15.75363843 2.4586246 18.60325381 2.484375 21.453125 C2.50816156 23.43130165 2.5325222 25.40947148 2.55743408 27.38763428 C2.60742125 31.54044482 2.65018507 35.69325262 2.68798828 39.84619141 C2.73700093 45.1638103 2.80411496 50.48101634 2.87673569 55.79835892 C2.93050715 59.88697521 2.9744418 63.97565252 3.01544952 68.06441498 C3.03632028 70.0244166 3.06027827 71.98438789 3.08739471 73.94431305 C3.12393283 76.68977294 3.147174 79.43503926 3.16699219 82.18066406 C3.18039139 82.98816605 3.19379059 83.79566803 3.20759583 84.62763977 C3.22412885 89.12195331 2.87418893 92.8195874 1 97 C-1.125 97.875 -1.125 97.875 -3 98 C-2.34 97.01 -1.68 96.02 -1 95 C-0.78596616 91.95071559 -0.68866309 88.98981561 -0.68115234 85.9387207 C-0.67110672 85.01169342 -0.6610611 84.08466614 -0.65071106 83.12954712 C-0.61978989 80.06163154 -0.60281907 76.99380358 -0.5859375 73.92578125 C-0.56723304 71.80013775 -0.54766018 69.67450173 -0.5272522 67.5488739 C-0.47584871 61.9511658 -0.43626696 56.35343361 -0.39910889 50.75561523 C-0.35912072 45.04469808 -0.30800475 39.33388186 -0.2578125 33.62304688 C-0.16095593 22.41543541 -0.0765823 11.20776705 0 0 Z " fill="#092237" transform="translate(231,36)"/>
<path d="M0 0 C0.33 0 0.66 0 1 0 C2.07219121 4.35424625 2.14469378 8.59439744 2.1328125 13.05078125 C2.13413177 13.84623352 2.13545105 14.64168579 2.1368103 15.46124268 C2.13873508 18.07836726 2.13235753 20.69538613 2.125 23.3125 C2.12411377 24.20629364 2.12322754 25.10008728 2.12231445 26.02096558 C2.09919992 46.02237319 1.60740618 66.00890553 1 86 C4.96 86 8.92 86 13 86 C13 80.72 13 75.44 13 70 C13.33 70 13.66 70 14 70 C14.22114415 72.79119779 14.42743301 75.5821212 14.625 78.375 C14.68945312 79.1690625 14.75390625 79.963125 14.8203125 80.78125 C14.96058587 82.85028224 14.98758237 84.92625536 15 87 C13 89 13 89 9.9609375 89.1953125 C8.77757812 89.17210937 7.59421875 89.14890625 6.375 89.125 C5.18648437 89.10695313 3.99796875 89.08890625 2.7734375 89.0703125 C1.85820312 89.04710937 0.94296875 89.02390625 0 89 C-0.13282859 81.70462445 -0.26333252 74.40921082 -0.39115143 67.11374569 C-0.45061926 63.72335179 -0.5110094 60.33298059 -0.57275391 56.94262695 C-0.81474733 43.63051933 -1.04549967 30.31835435 -1.09375 17.00390625 C-1.1002356 16.08479965 -1.10672119 15.16569305 -1.11340332 14.21873474 C-1.11683053 9.36811567 -0.82203555 4.78234615 0 0 Z " fill="#00050E" transform="translate(134,104)"/>
<path d="M0 0 C2.21644979 3.32467468 2.24879779 4.34013581 2.24291992 8.21020508 C2.24747444 9.82137207 2.24747444 9.82137207 2.25212097 11.46508789 C2.24497574 12.6380542 2.23783051 13.81102051 2.23046875 15.01953125 C2.23037308 16.24623535 2.2302774 17.47293945 2.23017883 18.73681641 C2.22707845 22.07131012 2.21464893 25.40550085 2.19723511 28.73993301 C2.18752487 30.80720574 2.18167453 32.87445157 2.17724609 34.94174194 C2.12353184 59.9682421 1.70559414 84.98330973 1 110 C0.67 110 0.34 110 0 110 C-0.74214309 83.94406659 -1.11039654 57.89713937 -1.12338257 31.83143997 C-1.12500461 29.68139446 -1.12856827 27.53135943 -1.13256836 25.38131714 C-1.13948605 21.34143016 -1.1369959 17.30160979 -1.1328125 13.26171875 C-1.13479645 12.03467224 -1.1367804 10.80762573 -1.13882446 9.543396 C-1.13571259 8.42910217 -1.13260071 7.31480835 -1.12939453 6.16674805 C-1.12859894 5.18852585 -1.12780334 4.21030365 -1.12698364 3.20243835 C-1 1 -1 1 0 0 Z " fill="#03162C" transform="translate(147,62)"/>
<path d="M0 0 C0 7.92 0 15.84 0 24 C-9 29 -9 29 -12 29 C-12 21.41 -12 13.82 -12 6 C-11.34 6 -10.68 6 -10 6 C-10 12.6 -10 19.2 -10 26 C-8.02 25.01 -6.04 24.02 -4 23 C-3.34 23 -2.68 23 -2 23 C-2 16.73 -2 10.46 -2 4 C-4.31 4.66 -6.62 5.32 -9 6 C-3.2 0 -3.2 0 0 0 Z " fill="#0D253D" transform="translate(123,88)"/>
<path d="M0 0 C0 3 0 3 -1.66479492 5.00537109 C-2.42896729 5.75383301 -3.19313965 6.50229492 -3.98046875 7.2734375 C-4.81513672 8.0984375 -5.64980469 8.9234375 -6.50976562 9.7734375 C-7.39341797 10.63195312 -8.27707031 11.49046875 -9.1875 12.375 C-10.05181641 13.22578125 -10.91613281 14.0765625 -11.80664062 14.953125 C-13.47500401 16.59464116 -15.14675479 18.23272332 -16.82226562 19.86694336 C-18.51894988 21.52881896 -20.19408227 23.20554753 -21.85546875 24.90234375 C-28.34265778 31.2477363 -34.90029395 34.44021837 -44 35 C-47.08378259 34.87057931 -49.9451409 34.50079657 -53 34 C-53 33.67 -53 33.34 -53 33 C-52.17757812 32.97421875 -51.35515625 32.9484375 -50.5078125 32.921875 C-37.02355418 32.23676257 -27.66903719 28.06296342 -18.1640625 18.359375 C-17.37773941 17.56880707 -17.37773941 17.56880707 -16.57553101 16.76226807 C-14.92055166 15.09619309 -13.27270711 13.42326417 -11.625 11.75 C-10.49656019 10.61151665 -9.36765819 9.47349122 -8.23828125 8.3359375 C-5.48681792 5.56255488 -2.74172617 2.78300766 0 0 Z " fill="#0A2339" transform="translate(213,187)"/>
<path d="M0 0 C0.33 0 0.66 0 1 0 C4.58492514 23.71812081 4.58492514 23.71812081 1 31 C-1.25 32.4375 -1.25 32.4375 -4 33 C-7.25 32.25 -7.25 32.25 -10 31 C-11.35439668 28.29120665 -11.06501451 25.99066732 -11 23 C-9.79371992 25.33214148 -8.8345262 27.49642139 -8 30 C-4.535 29.505 -4.535 29.505 -1 29 C-0.67 19.43 -0.34 9.86 0 0 Z " fill="#0C2C3F" transform="translate(232,159)"/>
<path d="M0 0 C0 0.33 0 0.66 0 1 C-0.83402344 1.14695312 -1.66804688 1.29390625 -2.52734375 1.4453125 C-13.98425308 3.7288202 -22.30534579 8.21550539 -29 18 C-30.87359823 21.59066801 -32.49983493 25.23921751 -34 29 C-34.33 29 -34.66 29 -35 29 C-34.6624966 19.71865661 -30.32410042 13.95217185 -23.6875 7.6875 C-16.17366811 1.39246693 -9.7708889 -0.73434656 0 0 Z " fill="#0B243A" transform="translate(47,6)"/>
<path d="M0 0 C0.99 0.33 1.98 0.66 3 1 C0.10736733 3.94230144 -2.79196934 6.87781592 -5.69750977 9.80737305 C-6.68372218 10.80360433 -7.66812729 11.80162829 -8.65063477 12.80151367 C-10.06828851 14.24359733 -11.49245115 15.67897564 -12.91796875 17.11328125 C-13.77156982 17.97735596 -14.6251709 18.84143066 -15.50463867 19.73168945 C-19.68048838 23.52758219 -23.3056331 25.63652977 -29 26 C-31.18359375 25.01171875 -31.18359375 25.01171875 -33 24 C-32.41992188 23.90203125 -31.83984375 23.8040625 -31.2421875 23.703125 C-25.95315765 22.69070344 -22.40060676 21.2480669 -18 18 C-17.01 17.67 -16.02 17.34 -15 17 C-14.29553722 15.68624416 -13.63244031 14.34990425 -13 13 C-11.57958984 11.35253906 -11.57958984 11.35253906 -9.9609375 9.765625 C-9.38085938 9.19199219 -8.80078125 8.61835938 -8.203125 8.02734375 C-7.59984375 7.44082031 -6.9965625 6.85429687 -6.375 6.25 C-5.76398438 5.64800781 -5.15296875 5.04601562 -4.5234375 4.42578125 C-3.02011376 2.94594695 -1.51065144 1.47235324 0 0 Z " fill="#0C2A43" transform="translate(198,183)"/>
<path d="M0 0 C0.17432891 3.74941253 0.28085841 7.49778509 0.375 11.25 C0.45041016 12.84521484 0.45041016 12.84521484 0.52734375 14.47265625 C0.67307052 22.19617527 0.67307052 22.19617527 -1.36230469 24.62695312 C-3.0234375 25.734375 -3.0234375 25.734375 -6 27 C-6.66 26.34 -7.32 25.68 -8 25 C-7.18144531 24.69449219 -6.36289063 24.38898438 -5.51953125 24.07421875 C-2.85883986 22.32236936 -2.85883986 22.32236936 -2.58740234 20.06494141 C-2.50716762 17.63149977 -2.56525889 15.24415774 -2.6875 12.8125 C-2.71005859 11.96751953 -2.73261719 11.12253906 -2.75585938 10.25195312 C-2.81475037 8.16721202 -2.90443202 6.08338196 -3 4 C-4.1446875 4.495 -4.1446875 4.495 -5.3125 5 C-8 6 -8 6 -11 6 C-11 5.34 -11 4.68 -11 4 C-9.73308493 3.32591692 -8.46129251 2.66099503 -7.1875 2 C-6.47980469 1.62875 -5.77210937 1.2575 -5.04296875 0.875 C-3 0 -3 0 0 0 Z " fill="#0D2D4A" transform="translate(123,126)"/>
<path d="M0 0 C0.66 0 1.32 0 2 0 C2.18433594 0.67804688 2.36867188 1.35609375 2.55859375 2.0546875 C5.70634584 12.1554742 11.81400679 19.84535928 21.0703125 25.10546875 C23.9944046 26.46096893 26.85999666 27.2804159 30 28 C29.67 28.66 29.34 29.32 29 30 C20.77027859 29.56685677 14.05212925 24.47738937 8.625 18.625 C3.88750156 12.93043116 0.74692868 7.46928678 0 0 Z " fill="#0D2339" transform="translate(11,191)"/>
<path d="M0 0 C0.33 0 0.66 0 1 0 C2.24551699 4.81398781 2.12689044 9.52346887 2.09765625 14.45703125 C2.0962413 15.35999435 2.09482635 16.26295746 2.09336853 17.19328308 C2.08778823 20.06638963 2.07523934 22.93941716 2.0625 25.8125 C2.05748245 27.76497283 2.05291999 29.71744689 2.04882812 31.66992188 C2.03782525 36.44664485 2.02057418 41.22330904 2 46 C1.67 46 1.34 46 1 46 C1 41.38 1 36.76 1 32 C0.34 32 -0.32 32 -1 32 C-1.02921779 27.97918212 -1.04687188 23.95839186 -1.0625 19.9375 C-1.07087891 18.80376953 -1.07925781 17.67003906 -1.08789062 16.50195312 C-1.10424847 10.89121133 -1.01812097 5.52350669 0 0 Z " fill="#082038" transform="translate(134,104)"/>
<path d="M0 0 C0.66 0 1.32 0 2 0 C2 11.88 2 23.76 2 36 C1.01 35.34 0.02 34.68 -1 34 C-0.505 29.545 -0.505 29.545 0 25 C-0.66 24.67 -1.32 24.34 -2 24 C-1.67 23.67 -1.34 23.34 -1 23 C-0.84259395 21.29436222 -0.74906608 19.58272756 -0.68359375 17.87109375 C-0.64169922 16.83662109 -0.59980469 15.80214844 -0.55664062 14.73632812 C-0.51732422 13.64771484 -0.47800781 12.55910156 -0.4375 11.4375 C-0.37272461 9.7987793 -0.37272461 9.7987793 -0.30664062 8.12695312 C-0.20017932 5.41810436 -0.09816484 2.70916008 0 0 Z " fill="#0A2137" transform="translate(10,36)"/>
<path d="M0 0 C8.31927346 0.35401164 14.17948924 4.77986564 19.75 10.75 C23.34495622 15.07400329 25.72515944 19.88422953 28 25 C27.34 25.99 26.68 26.98 26 28 C25.78085938 27.443125 25.56171875 26.88625 25.3359375 26.3125 C20.97750271 15.82390896 14.60182607 7.34952548 4.0625 2.625 C2.71336099 2.07092955 1.36086984 1.52459835 0 1 C0 0.67 0 0.34 0 0 Z " fill="#0A2037" transform="translate(204,7)"/>
<path d="M0 0 C-1.32 0.33 -2.64 0.66 -4 1 C-4.04898438 2.18078125 -4.09796875 3.3615625 -4.1484375 4.578125 C-4.22348879 6.13543937 -4.29903561 7.69272991 -4.375 9.25 C-4.4059375 10.02730469 -4.436875 10.80460937 -4.46875 11.60546875 C-4.83381886 18.72431144 -4.83381886 18.72431144 -7 22 C-9.8202907 17.99561779 -9.00863471 13.87663461 -8.625 9.25 C-8.53992187 8.06083984 -8.53992187 8.06083984 -8.453125 6.84765625 C-8.31216305 4.89768265 -8.1574288 2.94871329 -8 1 C-4.84227798 -0.73807388 -3.46421706 -1.23722038 0 0 Z " fill="#092844" transform="translate(71,74)"/>
<path d="M0 0 C0 6.93 0 13.86 0 21 C-2 19 -2 19 -2.23046875 16.1015625 C-2.20919922 14.38066406 -2.20919922 14.38066406 -2.1875 12.625 C-2.17783203 10.91183594 -2.17783203 10.91183594 -2.16796875 9.1640625 C-2.0310161 6.58425671 -1.75511844 4.45262469 -1 2 C-2.31872662 2.39651917 -3.62997101 2.81798691 -4.9375 3.25 C-6.03384766 3.59804687 -6.03384766 3.59804687 -7.15234375 3.953125 C-9.20570556 4.8507553 -9.20570556 4.8507553 -9.75390625 7.109375 C-9.83511719 7.73328125 -9.91632813 8.3571875 -10 9 C-10.66 9 -11.32 9 -12 9 C-11.9375 6.1875 -11.9375 6.1875 -11 3 C-7.0393461 0.75812043 -4.56567773 0 0 0 Z " fill="#051D37" transform="translate(102,136)"/>
<path d="M0 0 C17.85649203 -0.18451025 17.85649203 -0.18451025 26 1 C25.67 1.66 25.34 2.32 25 3 C16.09 3 7.18 3 -2 3 C-1.34 2.67 -0.68 2.34 0 2 C0 1.34 0 0.68 0 0 Z " fill="#031F38" transform="translate(143,207)"/>
<path d="M0 0 C-2.55376826 1.70251217 -4.54914522 2.67974271 -7.375 3.75 C-12.80738139 5.86526355 -18.05108419 8.32150709 -23.3125 10.828125 C-26 12 -26 12 -28 12 C-28 11.34 -28 10.68 -28 10 C-24.28178731 8.12324745 -20.54892346 6.27769416 -16.8125 4.4375 C-15.75740234 3.90447266 -14.70230469 3.37144531 -13.61523438 2.82226562 C-12.59365234 2.32275391 -11.57207031 1.82324219 -10.51953125 1.30859375 C-9.11344604 0.60947876 -9.11344604 0.60947876 -7.67895508 -0.10375977 C-4.64703619 -1.11808349 -3.02559314 -0.90455877 0 0 Z " fill="#0D2842" transform="translate(140,42)"/>
<path d="M0 0 C4.55919487 1.71081772 8.8486199 3.86753713 13.1875 6.0625 C13.91130859 6.42666016 14.63511719 6.79082031 15.38085938 7.16601562 C17.25472602 8.10904991 19.1274425 9.05436885 21 10 C21.66 10.33 22.32 10.66 23 11 C23 12.65 23 14.3 23 16 C22.34 16.33 21.68 16.66 21 17 C21 15.68 21 14.36 21 13 C20.39937744 12.71278076 19.79875488 12.42556152 19.17993164 12.12963867 C16.46895683 10.82602778 13.76576611 9.50701686 11.0625 8.1875 C9.64420898 7.50977539 9.64420898 7.50977539 8.19726562 6.81835938 C7.29814453 6.37685547 6.39902344 5.93535156 5.47265625 5.48046875 C4.22367554 4.87561646 4.22367554 4.87561646 2.94946289 4.25854492 C1 3 1 3 0 0 Z " fill="#0E2A42" transform="translate(150,61)"/>
<path d="M0 0 C7.66227047 0.31402748 14.1209364 1.28670835 19.828125 6.75 C24 11.42873832 24 11.42873832 24 14 C23.34 14 22.68 14 22 14 C20.703125 12.57421875 20.703125 12.57421875 19.25 10.6875 C13.98743521 4.41290352 7.77536146 3.30613779 0 2 C0 1.34 0 0.68 0 0 Z " fill="#0B233B" transform="translate(192,18)"/>
<path d="M0 0 C3.3 0 6.6 0 10 0 C9.64008282 5.04806914 6.95601959 7.52239866 3.4375 10.8125 C2.91736328 11.31458984 2.39722656 11.81667969 1.86132812 12.33398438 C0.5831143 13.56529127 -0.70727147 14.7839407 -2 16 C-2.33 15.01 -2.66 14.02 -3 13 C-2.13375 12.18595703 -2.13375 12.18595703 -1.25 11.35546875 C-0.5075 10.64003906 0.235 9.92460937 1 9.1875 C1.7425 8.47980469 2.485 7.77210938 3.25 7.04296875 C5.32527608 5.06860631 5.32527608 5.06860631 5 2 C3.35 1.67 1.7 1.34 0 1 C0 0.67 0 0.34 0 0 Z M7 1 C7.33 1.66 7.66 2.32 8 3 C8.33 2.34 8.66 1.68 9 1 C8.34 1 7.68 1 7 1 Z " fill="#10334B" transform="translate(205,166)"/>
<path d="M0 0 C0.80832275 0.00410889 1.61664551 0.00821777 2.44946289 0.01245117 C3.77300781 0.01535156 3.77300781 0.01535156 5.12329102 0.01831055 C6.0469043 0.03055664 6.97051758 0.04280273 7.92211914 0.05541992 C9.30173828 0.05638672 9.30173828 0.05638672 10.70922852 0.05737305 C17.5629534 0.10236468 17.5629534 0.10236468 20.98461914 1.24291992 C23.07307376 4.31336313 23.20569473 6.84204744 23.10961914 10.49291992 C23.09157227 11.38495117 23.07352539 12.27698242 23.05493164 13.19604492 C23.03172852 13.87151367 23.00852539 14.54698242 22.98461914 15.24291992 C21.99461914 15.73791992 21.99461914 15.73791992 20.98461914 16.24291992 C20.48961914 9.80791992 20.48961914 9.80791992 19.98461914 3.24291992 C12.06461914 2.91291992 4.14461914 2.58291992 -4.01538086 2.24291992 C-2.01538086 0.24291992 -2.01538086 0.24291992 0 0 Z " fill="#05111E" transform="translate(212.015380859375,152.757080078125)"/>
<path d="M0 0 C0.33 0 0.66 0 1 0 C1.1743959 3.58271776 1.28087658 7.16434602 1.375 10.75 C1.45041016 12.27367188 1.45041016 12.27367188 1.52734375 13.828125 C1.58343024 16.66984073 1.56565196 19.21324032 1 22 C-1.875 24.71875 -1.875 24.71875 -5 26 C-7.375 25.75 -7.375 25.75 -9 25 C-4.25 22 -4.25 22 -2 22 C-2 18.7 -2 15.4 -2 12 C-1.67 12 -1.34 12 -1 12 C-0.67 8.04 -0.34 4.08 0 0 Z " fill="#1A3A5B" transform="translate(102,98)"/>
<path d="M0 0 C0.33 0 0.66 0 1 0 C1 3.96 1 7.92 1 12 C2.93875 12.061875 4.8775 12.12375 6.875 12.1875 C7.96554688 12.22230469 9.05609375 12.25710937 10.1796875 12.29296875 C11.57574219 12.14794922 11.57574219 12.14794922 13 12 C13.66 11.01 14.32 10.02 15 9 C15 10.65 15 12.3 15 14 C12.54220024 14.22126178 10.08472352 14.42750395 7.625 14.625 C6.57699219 14.72167969 6.57699219 14.72167969 5.5078125 14.8203125 C3.67630889 14.96119739 1.83687252 14.98761659 0 15 C-0.66 14.34 -1.32 13.68 -2 13 C-1.34 13 -0.68 13 0 13 C-0.08378906 12.39671875 -0.16757812 11.7934375 -0.25390625 11.171875 C-0.35574219 10.37265625 -0.45757812 9.5734375 -0.5625 8.75 C-0.66691406 7.96109375 -0.77132812 7.1721875 -0.87890625 6.359375 C-1.00027349 3.99467126 -0.69633257 2.2488963 0 0 Z " fill="#081C2F" transform="translate(63,178)"/>
<path d="M0 0 C0 0.66 0 1.32 0 2 C-3.07404893 3.54015031 -6.16049712 5.05362087 -9.25 6.5625 C-10.12269531 7.00013672 -10.99539062 7.43777344 -11.89453125 7.88867188 C-12.73886719 8.29794922 -13.58320312 8.70722656 -14.453125 9.12890625 C-15.61569824 9.70233765 -15.61569824 9.70233765 -16.80175781 10.28735352 C-19.31599145 11.10244103 -20.54679315 10.88207936 -23 10 C-17.66666667 7.33333333 -12.33333333 4.66666667 -7 2 C-5.98244629 1.44481689 -5.98244629 1.44481689 -4.94433594 0.87841797 C-3 0 -3 0 0 0 Z " fill="#0B243A" transform="translate(132,58)"/>
<path d="M0 0 C0.33 0 0.66 0 1 0 C1.22114415 2.79119779 1.42743301 5.5821212 1.625 8.375 C1.68945312 9.1690625 1.75390625 9.963125 1.8203125 10.78125 C1.96058587 12.85028224 1.98758237 14.92625536 2 17 C0 19 0 19 -3.0390625 19.1953125 C-4.22242188 19.17210937 -5.40578125 19.14890625 -6.625 19.125 C-7.81351563 19.10695312 -9.00203125 19.08890625 -10.2265625 19.0703125 C-11.14179688 19.04710937 -12.05703125 19.02390625 -13 19 C-12.505 17.515 -12.505 17.515 -12 16 C-8.04 16 -4.08 16 0 16 C0 10.72 0 5.44 0 0 Z " fill="#04172A" transform="translate(147,174)"/>
<path d="M0 0 C0.8971875 0.5259375 0.8971875 0.5259375 1.8125 1.0625 C0.636875 1.43375 -0.53875 1.805 -1.75 2.1875 C-8.85964269 4.86777238 -13.36334541 9.63792029 -17.1875 16.0625 C-17.5175 15.4025 -17.8475 14.7425 -18.1875 14.0625 C-15.3959504 7.59118047 -11.04145904 3.87889318 -5.1875 0.0625 C-2.1875 -0.9375 -2.1875 -0.9375 0 0 Z " fill="#0E273F" transform="translate(43.1875,19.9375)"/>
<path d="M0 0 C3 1 3 1 3.921875 2.63671875 C4.19515625 3.31347656 4.4684375 3.99023438 4.75 4.6875 C6.91857833 9.36927569 9.98801538 11.89713505 14 15 C14.66 15.66 15.32 16.32 16 17 C11.21346973 17 8.31552874 14.29617741 5 11 C0 3.06937799 0 3.06937799 0 0 Z " fill="#0B243A" transform="translate(24,189)"/>
<path d="M0 0 C3.96668014 5.95002021 2.008428 14.19311102 1 21 C0.34 21 -0.32 21 -1 21 C-1.0270203 18.24993392 -1.04684883 15.50013454 -1.0625 12.75 C-1.07087891 11.97269531 -1.07925781 11.19539063 -1.08789062 10.39453125 C-1.09111328 9.64042969 -1.09433594 8.88632813 -1.09765625 8.109375 C-1.10289307 7.41811523 -1.10812988 6.72685547 -1.11352539 6.01464844 C-0.99437971 3.90026102 -0.57618237 2.03358485 0 0 Z " fill="#06194C" transform="translate(63,97)"/>
<path d="M0 0 C-3.28131586 2.68471298 -6.71908453 4.41664304 -10.5625 6.1875 C-12.26599609 6.98220703 -12.26599609 6.98220703 -14.00390625 7.79296875 C-17 9 -17 9 -20 9 C-20 8.34 -20 7.68 -20 7 C-17.60945893 5.8212678 -15.21354785 4.65697003 -12.8125 3.5 C-12.13896484 3.16613281 -11.46542969 2.83226562 -10.77148438 2.48828125 C-7.03696471 0.70299868 -4.24205451 -0.46127195 0 0 Z " fill="#0C2640" transform="translate(108,56)"/>
<path d="M0 0 C0.33 0 0.66 0 1 0 C1.19585135 2.39541268 1.38192107 4.79092774 1.5625 7.1875 C1.61857422 7.86103516 1.67464844 8.53457031 1.73242188 9.22851562 C2.00963763 13.017131 1.96511161 16.31827794 1 20 C-1.46058827 16.3091176 -1.23778976 14.38892458 -1.1875 10 C-1.18105469 8.7625 -1.17460937 7.525 -1.16796875 6.25 C-1 3 -1 3 0 0 Z " fill="#011A2F" transform="translate(24,168)"/>
<path d="M0 0 C0.66 0 1.32 0 2 0 C2.1743959 3.58271776 2.28087658 7.16434602 2.375 10.75 C2.45041016 12.27367187 2.45041016 12.27367187 2.52734375 13.828125 C2.67307052 21.21161488 2.67307052 21.21161488 0.63769531 23.59570312 C-1.0234375 24.703125 -1.0234375 24.703125 -4 26 C-4.66 25.34 -5.32 24.68 -6 24 C-1.25 21 -1.25 21 1 21 C0.67 14.07 0.34 7.14 0 0 Z " fill="#051027" transform="translate(121,127)"/>
<path d="M0 0 C0 7.26 0 14.52 0 22 C-0.33 22 -0.66 22 -1 22 C-1.19430855 19.3753399 -1.38073238 16.75053235 -1.5625 14.125 C-1.61857422 13.37863281 -1.67464844 12.63226563 -1.73242188 11.86328125 C-2.11328125 6.2265625 -2.11328125 6.2265625 -1 4 C-1.99 3.67 -2.98 3.34 -4 3 C-1.125 0 -1.125 0 0 0 Z " fill="#09213A" transform="translate(102,96)"/>
<path d="M0 0 C0.66 0 1.32 0 2 0 C2 9.57 2 19.14 2 29 C1.67 29 1.34 29 1 29 C1 21.41 1 13.82 1 6 C0.34 5.67 -0.32 5.34 -1 5 C-0.67 3.35 -0.34 1.7 0 0 Z " fill="#0B3050" transform="translate(134,56)"/>
<path d="M0 0 C4.23322844 0.62045463 7.52290295 2.10523559 11.3125 4.0625 C12.38113281 4.61035156 13.44976562 5.15820312 14.55078125 5.72265625 C15.35902344 6.14417969 16.16726562 6.56570312 17 7 C16.34 7.66 15.68 8.32 15 9 C10.05 6.69 5.1 4.38 0 2 C0 1.34 0 0.68 0 0 Z " fill="#0C2740" transform="translate(170,57)"/>
<path d="M0 0 C6.02770138 0.47587116 10.76678289 3.19722957 16 6 C16 6.66 16 7.32 16 8 C11.85701333 7.40165275 8.81805623 5.99335715 5.1875 3.9375 C4.21167969 3.38964844 3.23585937 2.84179688 2.23046875 2.27734375 C1.49441406 1.85582031 0.75835937 1.43429688 0 1 C0 0.67 0 0.34 0 0 Z " fill="#0E263E" transform="translate(153,49)"/>
<path d="M0 0 C-2 2 -2 2 -4.06298828 2.13525391 C-4.89040527 2.08288574 -5.71782227 2.03051758 -6.5703125 1.9765625 C-7.46621094 1.925 -8.36210937 1.8734375 -9.28515625 1.8203125 C-10.22230469 1.75585938 -11.15945312 1.69140625 -12.125 1.625 C-13.06988281 1.56828125 -14.01476562 1.5115625 -14.98828125 1.453125 C-17.32626481 1.31142903 -19.66320944 1.16000217 -22 1 C-22 0.67 -22 0.34 -22 0 C-19.64628886 -0.1968999 -17.2925305 -0.38270974 -14.9375 -0.5625 C-13.62652344 -0.66691406 -12.31554687 -0.77132812 -10.96484375 -0.87890625 C-7.07674103 -0.99765619 -3.80889777 -0.66866216 0 0 Z " fill="#000C31" transform="translate(143,208)"/>
<path d="M0 0 C0.53625 0.350625 1.0725 0.70125 1.625 1.0625 C5.62019269 2.63954975 9.05410025 1.31529992 13 0 C12.375 1.9375 12.375 1.9375 11 4 C7.34062825 5.21979058 5.65690095 5.29988957 2.125 3.6875 C1.42375 3.130625 0.7225 2.57375 0 2 C0 1.34 0 0.68 0 0 Z " fill="#0F2239" transform="translate(174,174)"/>
<path d="M0 0 C-0.33 0.99 -0.66 1.98 -1 3 C-1.99 3.309375 -2.98 3.61875 -4 3.9375 C-5.485 4.4634375 -5.485 4.4634375 -7 5 C-7.96877057 7.03243548 -7.96877057 7.03243548 -8 9 C-8.66 9 -9.32 9 -10 9 C-9.9375 6.1875 -9.9375 6.1875 -9 3 C-3.5 0 -3.5 0 0 0 Z " fill="#10243F" transform="translate(100,136)"/>
<path d="M0 0 C4.55519783 3.93963055 6.15451681 7.26928904 8 13 C7.34 13.66 6.68 14.32 6 15 C5.73445312 14.38511719 5.46890625 13.77023438 5.1953125 13.13671875 C4.84210938 12.32847656 4.48890625 11.52023438 4.125 10.6875 C3.77695313 9.88699219 3.42890625 9.08648437 3.0703125 8.26171875 C1.97428106 5.8038166 1.97428106 5.8038166 0 3 C0 2.01 0 1.02 0 0 Z " fill="#091D31" transform="translate(224,20)"/>
<path d="M0 0 C1.20628008 2.33214148 2.1654738 4.49642139 3 7 C5.31 7.33 7.62 7.66 10 8 C9.01 8.66 8.02 9.32 7 10 C3.875 9.25 3.875 9.25 1 8 C-0.35439668 5.29120665 -0.06501451 2.99066732 0 0 Z " fill="#0C2238" transform="translate(221,182)"/>
<path d="M0 0 C0 4.95 0 9.9 0 15 C-0.33 15 -0.66 15 -1 15 C-1.33 12.03 -1.66 9.06 -2 6 C-2.99 6.495 -2.99 6.495 -4 7 C-4.1875 4.625 -4.1875 4.625 -4 2 C-1 0 -1 0 0 0 Z " fill="#0C3975" transform="translate(66,94)"/>
<path d="M0 0 C0.66 0.33 1.32 0.66 2 1 C2.28571429 8.42857143 2.28571429 8.42857143 0 12 C-1.28571429 3.42857143 -1.28571429 3.42857143 0 0 Z " fill="#09273C" transform="translate(10,71)"/>
<path d="M0 0 C0.66 0.33 1.32 0.66 2 1 C2 1.66 2 2.32 2 3 C1.34 3 0.68 3 0 3 C-0.33 4.32 -0.66 5.64 -1 7 C-1.33 6.34 -1.66 5.68 -2 5 C-2.99 5.33 -3.98 5.66 -5 6 C-3.63016497 2.83884224 -3.0109362 2.0072908 0 0 Z " fill="#0F304C" transform="translate(221,179)"/>
<path d="M0 0 C1.98 0 3.96 0 6 0 C6 0.66 6 1.32 6 2 C6.66 2.33 7.32 2.66 8 3 C4.37 3 0.74 3 -3 3 C-2.01 2.67 -1.02 2.34 0 2 C0 1.34 0 0.68 0 0 Z " fill="#031754" transform="translate(80,207)"/>
<path d="M0 0 C2.31 1.98 4.62 3.96 7 6 C6.34 6.66 5.68 7.32 5 8 C3.02 5.69 1.04 3.38 -1 1 C-0.67 0.67 -0.34 0.34 0 0 Z " fill="#0D2944" transform="translate(218,13)"/>
<path d="M0 0 C1.32 0 2.64 0 4 0 C4 0.66 4 1.32 4 2 C5.65 2 7.3 2 9 2 C9 2.33 9 2.66 9 3 C5.37 3 1.74 3 -2 3 C-1.34 2.67 -0.68 2.34 0 2 C0 1.34 0 0.68 0 0 Z " fill="#03264B" transform="translate(143,207)"/>
<path d="M0 0 C-3.99560608 2.83022097 -7.42737323 1.76210446 -12 1 C-12 0.67 -12 0.34 -12 0 C-7.74433453 -1.16063604 -4.3164922 -0.76173392 0 0 Z " fill="#000B3A" transform="translate(159,208)"/>
<path d="M0 0 C5.53846154 0.61538462 5.53846154 0.61538462 7.875 2.5625 C8.431875 3.2740625 8.431875 3.2740625 9 4 C8.01 4.495 8.01 4.495 7 5 C4.5249829 3.88568235 2.32116581 2.41849022 0 1 C0 0.67 0 0.34 0 0 Z " fill="#082238" transform="translate(178,61)"/>
<path d="M0 0 C0.33 0 0.66 0 1 0 C1 1.98 1 3.96 1 6 C0.67 6 0.34 6 0 6 C0 4.02 0 2.04 0 0 Z " fill="#003838" transform="translate(8,95)"/>
<path d="M0 0 C1 4 1 4 1 4 Z " fill="#002020" transform="translate(8,88)"/>
<path d="M0 0 C3 1 3 1 3 1 Z " fill="#002A2A" transform="translate(29,221)"/>
<path d="M0 0 C0.99 0.495 0.99 0.495 2 1 C1.01 1.495 1.01 1.495 0 2 C0 1.34 0 0.68 0 0 Z " fill="#001C1C" transform="translate(204,174)"/>
<path d="" fill="#002A2A" transform="translate(0,0)"/>
<path d="" fill="#000000" transform="translate(0,0)"/>
<path d="M0 0 C0.99 0.495 0.99 0.495 2 1 C1.01 1.495 1.01 1.495 0 2 C0 1.34 0 0.68 0 0 Z " fill="#153147" transform="translate(120,86)"/>
<path d="M0 0 C3 1 3 1 3 1 Z " fill="#113E3E" transform="translate(120,46)"/>
<path d="" fill="#000000" transform="translate(0,0)"/>
<path d="M0 0 C3 1 3 1 3 1 Z " fill="#000000" transform="translate(70,21)"/>
<path d="" fill="#004040" transform="translate(0,0)"/>
<path d="M0 0 C2 1 2 1 2 1 Z " fill="#004040" transform="translate(176,179)"/>
<path d="" fill="#004040" transform="translate(0,0)"/>
<path d="" fill="#000000" transform="translate(0,0)"/>
<path d="" fill="#000000" transform="translate(0,0)"/>
<path d="" fill="#008080" transform="translate(0,0)"/>
<path d="M0 0 C2 1 2 1 2 1 Z " fill="#195973" transform="translate(88,125)"/>
<path d="" fill="#004040" transform="translate(0,0)"/>
<path d="" fill="#000000" transform="translate(0,0)"/>
<path d="" fill="#000000" transform="translate(0,0)"/>
<path d="" fill="#000000" transform="translate(0,0)"/>
<path d="" fill="#004040" transform="translate(0,0)"/>
<path d="M0 0 C2 1 2 1 2 1 Z " fill="#004040" transform="translate(100,21)"/>
<path d="" fill="#000000" transform="translate(0,0)"/>
<path d="" fill="#008080" transform="translate(0,0)"/>
<path d="" fill="#005555" transform="translate(0,0)"/>
<path d="" fill="#008080" transform="translate(0,0)"/>
<path d="" fill="#005555" transform="translate(0,0)"/>
<path d="" fill="#000000" transform="translate(0,0)"/>
<path d="" fill="#000000" transform="translate(0,0)"/>
<path d="" fill="#008080" transform="translate(0,0)"/>
<path d="" fill="#008080" transform="translate(0,0)"/>
<path d="" fill="#000000" transform="translate(0,0)"/>
<path d="" fill="#008080" transform="translate(0,0)"/>
<path d="" fill="#000000" transform="translate(0,0)"/>
<path d="" fill="#000000" transform="translate(0,0)"/>
<path d="" fill="#000000" transform="translate(0,0)"/>
<path d="" fill="#008080" transform="translate(0,0)"/>
<path d="" fill="#000000" transform="translate(0,0)"/>
<path d="" fill="#008080" transform="translate(0,0)"/>
<path d="" fill="#008080" transform="translate(0,0)"/>
<path d="" fill="#404080" transform="translate(0,0)"/>
<path d="" fill="#000000" transform="translate(0,0)"/>
<path d="" fill="#000000" transform="translate(0,0)"/>
<path d="" fill="#008080" transform="translate(0,0)"/>
<path d="" fill="#000000" transform="translate(0,0)"/>
<path d="" fill="#000000" transform="translate(0,0)"/>
<path d="" fill="#000000" transform="translate(0,0)"/>
<path d="" fill="#000000" transform="translate(0,0)"/>
<path d="" fill="#000000" transform="translate(0,0)"/>
<path d="" fill="#000000" transform="translate(0,0)"/>
<path d="" fill="#005555" transform="translate(0,0)"/>
<path d="" fill="#008080" transform="translate(0,0)"/>
<path d="" fill="#000000" transform="translate(0,0)"/>
<path d="" fill="#008080" transform="translate(0,0)"/>
<path d="" fill="#000000" transform="translate(0,0)"/>
<path d="" fill="#000000" transform="translate(0,0)"/>
<path d="" fill="#000000" transform="translate(0,0)"/>
<path d="" fill="#000000" transform="translate(0,0)"/>
<path d="" fill="#000000" transform="translate(0,0)"/>
<path d="" fill="#000000" transform="translate(0,0)"/>
<path d="" fill="#000000" transform="translate(0,0)"/>
<path d="" fill="#000000" transform="translate(0,0)"/>
<path d="" fill="#000000" transform="translate(0,0)"/>
<path d="" fill="#000000" transform="translate(0,0)"/>
<path d="" fill="#000000" transform="translate(0,0)"/>
<path d="" fill="#000000" transform="translate(0,0)"/>
<path d="" fill="#000000" transform="translate(0,0)"/>
<path d="" fill="#000000" transform="translate(0,0)"/>
<path d="" fill="#008080" transform="translate(0,0)"/>
<path d="" fill="#008080" transform="translate(0,0)"/>
<path d="" fill="#000000" transform="translate(0,0)"/>
<path d="" fill="#008080" transform="translate(0,0)"/>
<path d="" fill="#000000" transform="translate(0,0)"/>
<path d="" fill="#000000" transform="translate(0,0)"/>
<path d="" fill="#008080" transform="translate(0,0)"/>
<path d="" fill="#008080" transform="translate(0,0)"/>
<path d="" fill="#000000" transform="translate(0,0)"/>
<path d="" fill="#008080" transform="translate(0,0)"/>
<path d="" fill="#000000" transform="translate(0,0)"/>
<path d="" fill="#008080" transform="translate(0,0)"/>
<path d="" fill="#000000" transform="translate(0,0)"/>
<path d="" fill="#008080" transform="translate(0,0)"/>
<path d="" fill="#000000" transform="translate(0,0)"/>
<path d="" fill="#000000" transform="translate(0,0)"/>
<path d="" fill="#000000" transform="translate(0,0)"/>
<path d="" fill="#000000" transform="translate(0,0)"/>
<path d="" fill="#005555" transform="translate(0,0)"/>
<path d="" fill="#008080" transform="translate(0,0)"/>
<path d="" fill="#000000" transform="translate(0,0)"/>
<path d="" fill="#000000" transform="translate(0,0)"/>
<path d="" fill="#008080" transform="translate(0,0)"/>
<path d="" fill="#000000" transform="translate(0,0)"/>
<path d="" fill="#000000" transform="translate(0,0)"/>
<path d="" fill="#008080" transform="translate(0,0)"/>
<path d="" fill="#000000" transform="translate(0,0)"/>
<path d="" fill="#000000" transform="translate(0,0)"/>
<path d="" fill="#005555" transform="translate(0,0)"/>
<path d="" fill="#008080" transform="translate(0,0)"/>
<path d="" fill="#000000" transform="translate(0,0)"/>
<path d="" fill="#008080" transform="translate(0,0)"/>
<path d="" fill="#000000" transform="translate(0,0)"/>
<path d="" fill="#008080" transform="translate(0,0)"/>
<path d="" fill="#008080" transform="translate(0,0)"/>
<path d="" fill="#000000" transform="translate(0,0)"/>
<path d="" fill="#000000" transform="translate(0,0)"/>
<path d="" fill="#000000" transform="translate(0,0)"/>
<path d="" fill="#000000" transform="translate(0,0)"/>
<path d="" fill="#000000" transform="translate(0,0)"/>
<path d="" fill="#000000" transform="translate(0,0)"/>
<path d="" fill="#000000" transform="translate(0,0)"/>
<path d="" fill="#000000" transform="translate(0,0)"/>
<path d="" fill="#000000" transform="translate(0,0)"/>
<path d="" fill="#008080" transform="translate(0,0)"/>
<path d="" fill="#336666" transform="translate(0,0)"/>
</svg>
